<?xml version="1.0" encoding="utf-8"?>
<!-- Generator: Adobe Illustrator 18.0.0, SVG Export Plug-In . SVG Version: 6.00 Build 0)  -->
<!DOCTYPE svg PUBLIC "-//W3C//DTD SVG 1.1//EN" "http://www.w3.org/Graphics/SVG/1.1/DTD/svg11.dtd">
<svg version="1.1" id="Layer_1" xmlns="http://www.w3.org/2000/svg" xmlns:xlink="http://www.w3.org/1999/xlink" x="0px" y="0px"
	 viewBox="357.5 -505.8 555 198.9" enable-background="new 357.5 -505.8 555 198.9" xml:space="preserve">
<g>
	<g>
		<path fill="#FFFFFF" d="M459.2-373.6l-2.2-5.8h-1.6v66.2c0,3.6-2.8,6.4-6.4,6.4h-12.8c-3.6,0-6.4-2.8-6.4-6.4v-114.8
			c0-3.6,2.8-6.4,6.4-6.4h14.2c2.5,0,5,1.6,5.8,3.9l25.6,62.6l2.2,5.8h1.6v-65.9c0-3.6,2.8-6.4,6.4-6.4h12.8c3.6,0,6.4,2.8,6.4,6.4
			v114.8c0,3.6-2.8,6.4-6.4,6.4h-14.2c-2.5,0-5-1.6-5.8-3.9L459.2-373.6z"/>
		<path fill="#FFFFFF" d="M561.5-373.6l-2.2-5.8h-1.6v66.2c0,3.6-2.8,6.4-6.4,6.4h-13.1c-3.6,0-6.4-2.8-6.4-6.4v-114.8
			c0-3.6,2.8-6.4,6.4-6.4h14.2c2.5,0,5,1.6,5.8,3.9l25.6,62.6l2.2,5.8h1.6v-65.9c0-3.6,2.8-6.4,6.4-6.4h12.8c3.6,0,6.4,2.8,6.4,6.4
			v114.8c0,3.6-2.8,6.4-6.4,6.4h-14.2c-2.5,0-5-1.6-5.8-3.9L561.5-373.6z"/>
		<path fill="#FFFFFF" d="M658.3-328.8c0,3.3,0.3,7.5,7.2,7.5c5.8,0,7.5-1.9,7.5-7.5v-6.9c0-3.6,2.8-6.4,6.4-6.4h13.3
			c3.6,0,6.4,2.8,6.4,6.4v2.8c0,10.6-2.8,17.2-8.6,21.4c-5.8,4.2-13.9,5.8-25,5.8c-9.4,0-17.8-1.6-23.9-6.1
			c-5.8-4.5-9.4-11.4-9.4-22v-41.4c0-10.6,3.6-17.8,9.4-22c5.8-4.5,14.5-6.1,23.9-6.1c11.1,0,19.5,1.6,25,5.8
			c5.5,4.2,8.6,10.8,8.6,21.4v1.1c0,3.6-2.8,6.4-6.4,6.4h-13.3c-3.6,0-6.4-2.8-6.4-6.4v-5c0-5.8-1.6-7.5-7.5-7.5
			c-6.9,0-7.2,4.2-7.2,7.5V-328.8z"/>
		<path fill="#FFFFFF" d="M780.3-330.5c0,0.3,0,0.6,0,0.8c-0.8,8.9-5,15.3-13.9,20.3c-4.7,2.5-11.1,3.9-19.8,3.9
			c-16.7,0-25-6.1-29.2-12.5c-2.2-3.6-3.9-7.8-4.2-12.5v-47.7c0.8-9.2,5-15.9,13.9-21.1c4.5-2.5,10.8-3.9,19.5-3.9
			c16.7,0,25.3,6.1,29.5,12.2c2.2,3.6,3.9,7.5,4.2,12.2L780.3-330.5L780.3-330.5z M755.6-378.3c0.3-3.3-0.6-5.8-2.8-7.8
			c-0.3-0.3-0.8-0.6-1.1-0.8c-1.4-0.6-3.1-1.1-5-1.1c-5,0-6.9,2.2-8.1,4.7c-0.8,1.4-1.1,3.1-0.8,4.7v47.8c-0.3,3.6,1.1,6.1,3.3,8.1
			c1.4,0.8,3.1,1.4,5.5,1.4c5,0,7.2-1.9,8.3-4.7c0.8-1.4,1.1-3.1,0.8-4.7v-47.5H755.6z"/>
		<path fill="#FFFFFF" d="M804.5-434.4h13.3c3.6,0,6.4,2.8,6.4,6.4v4.7c0,3.6-2.8,6.4-6.4,6.4h-13.3c-3.6,0-6.4-2.8-6.4-6.4v-4.7
			C798.1-431.7,800.9-434.4,804.5-434.4z M798.1-313.3v-82.3c0-3.6,2.8-6.4,6.4-6.4h13.3c3.6,0,6.4,2.8,6.4,6.4v82.3
			c0,3.6-2.8,6.4-6.4,6.4h-13.3C800.9-307.2,798.1-309.9,798.1-313.3z"/>
		<path fill="#FFFFFF" d="M864.8-307.2h-13.3c-3.6,0-6.4-2.8-6.4-6.4v-82c0-3.6,2.8-6.4,6.4-6.4h13.3c3.6,0,6.4,2.8,6.4,6.4v1.6
			c0.6-0.3,1.6-0.8,3.1-1.9c2.8-1.9,6.7-4.5,11.4-6.1c2.2-0.8,4.5-1.1,6.7-1.1c6.9,0,12,2.8,15,6.1c3.1,3.6,4.7,8.3,4.7,12.2v71.4
			c0,3.6-2.8,6.4-6.4,6.4h-13.3c-3.6,0-6.4-2.8-6.4-6.4v-68.9c0-3.6-3.1-4.2-6.1-4.2c-2.8,0-4.5,1.1-6.1,2.2c0,0-0.3,0-0.3,0.3
			c-1.4,1.1-2.2,3.1-2.2,4.7v65.9C870.9-309.9,868.1-307.2,864.8-307.2z"/>
	</g>
	<circle fill="#DEA600" cx="394" cy="-476.7" r="29.5"/>
	<path fill="#FFFFFF" d="M380.9-428.1v15.9c0,3.6-2.8,6.4-6.4,6.4h-10.5c-3.6,0-6.4,2.8-6.4,6.4v15.9c0,3.3,2.8,6.4,6.4,6.4h10.6
		c3.6,0,6.4,2.8,6.4,6.4v2.8c0,3.6-2.8,6.4-6.4,6.4h-10.6c-3.6,0-6.4,2.8-6.4,6.4v15.9c0,3.6,2.8,6.4,6.4,6.4h10.6
		c3.6,0,6.4,2.8,6.4,6.4v13.3c0,3.6,2.8,6.4,6.4,6.4h15.9c3.6,0,6.4-2.8,6.4-6.4v-114.8c0-3.6-2.8-6.4-6.4-6.4h-15.9
		C383.6-434.4,380.9-431.7,380.9-428.1z"/>
</g>
</svg>
