<?xml version="1.0" encoding="utf-8"?>
<!-- Generator: Adobe Illustrator 18.0.0, SVG Export Plug-In . SVG Version: 6.00 Build 0)  -->
<!DOCTYPE svg PUBLIC "-//W3C//DTD SVG 1.1//EN" "http://www.w3.org/Graphics/SVG/1.1/DTD/svg11.dtd">
<svg version="1.1" id="Layer_1" xmlns="http://www.w3.org/2000/svg" xmlns:xlink="http://www.w3.org/1999/xlink" x="0px" y="0px"
	 viewBox="540 300 199.2 199.2" enable-background="new 540 300 199.2 199.2" xml:space="preserve">
<g>
	<circle fill="#0075C9" cx="639.6" cy="399.6" r="99.6"/>
	<circle fill="#FFFFFF" cx="639.6" cy="399.6" r="82.6"/>
	<g>
		<circle fill="#DEA600" cx="640.2" cy="351.2" r="20.3"/>
		<path fill="#0075C9" d="M631.2,384.8v10.8c0,2.4-2,4.4-4.4,4.4h-7.3c-2.4,0-4.4,2-4.4,4.4v10.8c0,2.4,2,4.4,4.4,4.4h7.3
			c2.4,0,4.4,2,4.4,4.4v2c0,2.4-2,4.4-4.4,4.4h-7.3c-2.4,0-4.4,2-4.4,4.4v10.8c0,2.4,2,4.4,4.4,4.4h7.3c2.4,0,4.4,2,4.4,4.4v9
			c0,2.4,2,4.4,4.4,4.4h10.8c2.4,0,4.4-2,4.4-4.4v-78.8c0-2.4-2-4.4-4.4-4.4h-10.8C633.2,380.4,631.2,382.4,631.2,384.8z"/>
	</g>
</g>
</svg>
